<svg width="70" height="50" viewBox="0 0 70 50" fill="none" xmlns="http://www.w3.org/2000/svg">
<g id="ewallet/applepay">
<rect x="0.5" y="0.5" width="69" height="49" stroke="#F5F5F5"/>
<g id="APPLE PAY">
<g id="logo">
<path id="XMLID_34_" fill-rule="evenodd" clip-rule="evenodd" d="M23.581 19.9265C23.1592 20.4313 22.4842 20.8294 21.8092 20.7725C21.7248 20.09 22.0553 19.3649 22.442 18.9171C22.8638 18.3981 23.6021 18.0284 24.1998 18C24.2701 18.7109 23.9959 19.4076 23.581 19.9265ZM24.1928 20.9076C23.5981 20.873 23.0555 21.0884 22.6172 21.2624C22.3352 21.3744 22.0963 21.4692 21.9146 21.4692C21.7107 21.4692 21.462 21.3693 21.1828 21.2571C20.8169 21.1102 20.3986 20.9422 19.9599 20.9502C18.9545 20.9645 18.0193 21.5403 17.506 22.4573C16.4513 24.2915 17.2318 27.0071 18.2513 28.5C18.7506 29.2393 19.3482 30.0498 20.1357 30.0213C20.4822 30.0081 20.7314 29.9012 20.9893 29.7905C21.2862 29.6631 21.5947 29.5308 22.0763 29.5308C22.5413 29.5308 22.8363 29.6597 23.1194 29.7834C23.3887 29.9011 23.6472 30.014 24.031 30.0071C24.8467 29.9929 25.3599 29.2678 25.8592 28.5284C26.3979 27.7349 26.6346 26.9605 26.6706 26.843L26.6748 26.8294C26.6739 26.8285 26.6673 26.8254 26.6555 26.82C26.4754 26.7366 25.0989 26.0995 25.0857 24.391C25.0725 22.957 26.1775 22.2304 26.3515 22.116C26.3621 22.109 26.3692 22.1043 26.3724 22.1019C25.6693 21.0498 24.5724 20.936 24.1928 20.9076ZM29.8388 29.9289V18.846H33.9521C36.0756 18.846 37.5592 20.3246 37.5592 22.4858C37.5592 24.6469 36.0474 26.1398 33.8959 26.1398H31.5404V29.9289H29.8388ZM31.54 20.2961H33.5018C34.9783 20.2961 35.8221 21.0924 35.8221 22.4928C35.8221 23.8933 34.9783 24.6966 33.4947 24.6966H31.54V20.2961ZM43.1775 28.5995C42.7275 29.4668 41.7361 30.0142 40.6674 30.0142C39.0854 30.0142 37.9814 29.0616 37.9814 27.6256C37.9814 26.2038 39.0502 25.3862 41.026 25.2654L43.1494 25.1374V24.5261C43.1494 23.6232 42.5658 23.1327 41.5252 23.1327C40.6674 23.1327 40.0416 23.5806 39.915 24.263H38.3822C38.4314 22.827 39.7674 21.782 41.5744 21.782C43.5221 21.782 44.7877 22.8128 44.7877 24.4123V29.9289H43.2127V28.5995H43.1775ZM41.124 28.6991C40.217 28.6991 39.6404 28.2583 39.6404 27.5829C39.6404 26.8863 40.1959 26.481 41.2576 26.4171L43.149 26.2962V26.9218C43.149 27.9597 42.2771 28.6991 41.124 28.6991ZM50.0115 30.3626C49.3295 32.3033 48.549 32.9431 46.8896 32.9431C46.7631 32.9431 46.3412 32.9289 46.2428 32.9005V31.5711C46.3482 31.5853 46.6084 31.5995 46.742 31.5995C47.4943 31.5995 47.9162 31.2796 48.1763 30.4479L48.331 29.9573L45.4482 21.8886H47.2271L49.231 28.436H49.2662L51.2701 21.8886H52.9998L50.0115 30.3626Z" fill="black"/>
</g>
</g>
</g>
</svg>
