<svg xmlns="http://www.w3.org/2000/svg" width="20" height="20" viewBox="0 0 20 20" fill="none">
  <g clip-path="url(#clip0_210_645)">
    <path d="M10 20C15.5228 20 20 15.5228 20 10C20 4.47715 15.5228 0 10 0C4.47715 0 0 4.47715 0 10C0 15.5228 4.47715 20 10 20Z" fill="#3C5A9A"/>
    <path d="M13.2516 3.06958H11.0364C9.72179 3.06958 8.25958 3.62248 8.25958 5.52805C8.266 6.19202 8.25958 6.82792 8.25958 7.54357H6.73877V9.96364H8.30665V16.9306H11.1877V9.91766H13.0893L13.2614 7.53678H11.1381C11.1381 7.53678 11.1428 6.47766 11.1381 6.17009C11.1381 5.41705 11.9216 5.46017 11.9688 5.46017C12.3416 5.46017 13.0666 5.46126 13.2527 5.46017V3.06958H13.2516Z" fill="white"/>
  </g>
  <defs>
    <clipPath id="clip0_210_645">
      <rect width="20" height="20" fill="white"/>
    </clipPath>
  </defs>
</svg>