<svg xmlns="http://www.w3.org/2000/svg" width="24" height="24" viewBox="0 0 24 24" fill="none">
  <path d="M12 20.0033C14.9314 20.0035 17.6284 18.4012 19.0299 15.8265" stroke="#323232" stroke-width="1.5" stroke-linecap="round" stroke-linejoin="round"/>
  <path d="M20.0033 12C20.0033 7.57992 16.4201 3.9967 12 3.9967" stroke="#323232" stroke-width="1.5" stroke-linecap="round" stroke-linejoin="round"/>
  <path d="M11.9987 3.9967C9.06729 3.99646 6.37032 5.59883 4.96875 8.17344" stroke="#323232" stroke-width="1.5" stroke-linecap="round" stroke-linejoin="round"/>
  <path d="M3.99609 12C3.99609 16.4201 7.57931 20.0033 11.9994 20.0033" stroke="#323232" stroke-width="1.5" stroke-linecap="round" stroke-linejoin="round"/>
  <path d="M4.96875 8.17335C6.71822 4.95833 10.4258 3.33982 13.9729 4.2427C17.52 5.14558 20.0026 8.33975 20.002 11.9999" stroke="#323232" stroke-width="1.5" stroke-linecap="round" stroke-linejoin="round"/>
  <path d="M3.99609 12C3.99553 15.6602 6.47811 18.8544 10.0252 19.7572C13.5723 20.6601 17.2799 19.0416 19.0294 15.8266" stroke="#323232" stroke-width="1.5" stroke-linecap="round" stroke-linejoin="round"/>
  <path d="M8.04429 8.17346H4.50781V4.63599" stroke="#323232" stroke-width="1.5" stroke-linecap="round" stroke-linejoin="round"/>
  <path d="M15.9531 15.8265H19.4896V19.364" stroke="#323232" stroke-width="1.5" stroke-linecap="round" stroke-linejoin="round"/>
</svg>