<svg xmlns="http://www.w3.org/2000/svg" width="24" height="24" viewBox="0 0 24 24" fill="none">
  <path d="M16.0012 18.5026H8.16797" stroke="#171717" stroke-width="1.5" stroke-linecap="round" stroke-linejoin="round"/>
  <path d="M18.9977 18.5026H21.0025C21.555 18.5026 22.0029 18.0547 22.0029 17.5022V11.3851C22.0029 11.1306 21.9544 10.8786 21.8599 10.6424L20.5046 7.25502C20.2007 6.49547 19.465 5.99744 18.6469 5.99744H15" stroke="#171717" stroke-width="1.5" stroke-linecap="round" stroke-linejoin="round"/>
  <path d="M22.0036 13.0004H18.5022C18.2259 13.0004 18.002 12.7765 18.002 12.5002V8.99878H21.2033" stroke="#171717" stroke-width="1.5" stroke-linecap="round" stroke-linejoin="round"/>
  <path d="M18.5578 17.4456C18.987 17.8748 19.1154 18.5202 18.8832 19.081C18.651 19.6417 18.1038 20.0074 17.4968 20.0074C16.8899 20.0074 16.3427 19.6418 16.1104 19.0811C15.8781 18.5204 16.0065 17.8749 16.4356 17.4457L16.4357 17.4456C16.7171 17.1642 17.0988 17.0061 17.4968 17.0061C17.8947 17.0061 18.2764 17.1642 18.5578 17.4456V17.4456" stroke="#171717" stroke-width="1.5" stroke-linecap="round" stroke-linejoin="round"/>
  <path d="M7.5539 17.4457C7.9831 17.8749 8.11152 18.5203 7.87928 19.0811C7.64704 19.6418 7.09988 20.0075 6.49293 20.0075C5.88599 20.0075 5.33879 19.6419 5.10649 19.0812C4.87419 18.5205 5.00255 17.875 5.4317 17.4458L5.432 17.4455C5.71339 17.1641 6.09504 17.0061 6.49298 17.0061C6.89092 17.0061 7.27255 17.1643 7.55388 17.4457V17.4457" stroke="#171717" stroke-width="1.5" stroke-linecap="round" stroke-linejoin="round"/>
  <path d="M4.99539 18.5027H2.99456C2.44204 18.5027 1.99414 18.0548 1.99414 17.5023V4.99712C1.99414 4.44461 2.44204 3.9967 2.99456 3.9967H13.9991C14.5517 3.9967 14.9996 4.44461 14.9996 4.99712V14.0009" stroke="#171717" stroke-width="1.5" stroke-linecap="round" stroke-linejoin="round"/>
  <path d="M14.9996 14.0008H1.99414" stroke="#171717" stroke-width="1.5" stroke-linecap="round" stroke-linejoin="round"/>
</svg>