<svg xmlns="http://www.w3.org/2000/svg" width="20" height="20" viewBox="0 0 20 20" fill="none">
  <g clip-path="url(#clip0_210_470)">
    <path d="M19.5397 8.32789C19.6273 8.32789 19.6983 8.39887 19.6983 8.48643V10.151C19.6983 10.7741 19.6404 11.3832 19.5294 11.9742C18.6708 16.5643 14.627 20.0332 9.77982 19.9998C4.34096 19.9623 -0.0117729 15.5678 0.000269066 10.1288C0.0122341 4.69967 4.41729 0.302002 9.84926 0.302002C12.5105 0.302002 14.9252 1.35777 16.698 3.07273C16.762 3.13464 16.7636 3.23667 16.7006 3.29961L14.3457 5.65457C14.2851 5.7152 14.1871 5.71678 14.125 5.65764C13.0123 4.59853 11.5069 3.9483 9.84926 3.9483C6.4263 3.9483 3.66992 6.6851 3.64668 10.108C3.62333 13.5533 6.40937 16.3537 9.84926 16.3537C12.6403 16.3537 15.0009 14.51 15.7793 11.9742H10.0078C9.92025 11.9742 9.84926 11.9032 9.84926 11.8156V8.48639C9.84926 8.39883 9.92025 8.32785 10.0078 8.32785H19.5397V8.32789Z" fill="#2196F3"/>
    <path d="M19.5393 8.32788H18.3503C18.4378 8.32788 18.5088 8.39886 18.5088 8.48643V10.151C18.5088 10.7741 18.451 11.3832 18.34 11.9742C17.5208 16.3532 13.8026 19.7117 9.25366 19.9823C9.42771 19.9926 9.60292 19.9986 9.77935 19.9998C14.6265 20.0332 18.6704 16.5643 19.529 11.9742C19.64 11.3832 19.6978 10.7741 19.6978 10.151V8.48639C19.6978 8.39886 19.6268 8.32788 19.5393 8.32788Z" fill="#1E88E5"/>
    <path d="M4.21555 7.55343L1.22437 5.39218C2.90247 2.35703 6.13619 0.302002 9.8495 0.302002C12.5108 0.302002 14.9254 1.35777 16.6982 3.07274C16.7622 3.13464 16.7639 3.23667 16.7009 3.29961L14.3459 5.65457C14.2854 5.71509 14.1875 5.71697 14.1255 5.65795C13.0128 4.59864 11.5073 3.94834 9.8495 3.94834C7.35139 3.94834 5.19807 5.42508 4.21555 7.55343Z" fill="#F44336"/>
    <path d="M3.35132 6.92943L4.21484 7.55334C5.11164 5.61069 6.98403 4.21159 9.20353 3.9821C9.22023 3.98029 9.23627 3.9781 9.25327 3.97648C9.05795 3.95794 8.86001 3.94824 8.65979 3.94824C6.4031 3.94824 4.43637 5.13794 3.35132 6.92943Z" fill="#E53935"/>
    <path d="M15.5087 3.07274C15.5727 3.13464 15.5744 3.23667 15.5114 3.29965L13.5999 5.21109C13.7831 5.35036 13.9583 5.49933 14.1247 5.65768C14.1868 5.71682 14.2848 5.71524 14.3454 5.65461L16.7004 3.29965C16.7634 3.23667 16.7617 3.13468 16.6977 3.07274C14.9249 1.35777 12.5103 0.302002 9.84899 0.302002C9.64928 0.302002 9.45114 0.308658 9.25439 0.320392C11.6797 0.464857 13.8689 1.48643 15.5087 3.07274Z" fill="#E53935"/>
    <path d="M17.0735 16.8445C15.2749 18.7854 12.7035 20.0002 9.84863 20.0002C5.99266 20.0002 2.6543 17.7843 1.0376 14.5561L4.09137 12.4634C5.00776 14.7435 7.24033 16.3539 9.84863 16.3539C11.4855 16.3539 12.9742 15.7197 14.0823 14.6837L17.0735 16.8445Z" fill="#4CAF50"/>
    <path d="M4.09166 12.4634L3.19116 13.0804C4.23704 15.0289 6.29376 16.3538 8.65988 16.3538C8.85997 16.3538 9.05776 16.344 9.25301 16.3255C6.90429 16.1016 4.93737 14.5678 4.09166 12.4634Z" fill="#43A047"/>
    <path d="M9.84912 20.0001C12.704 20.0001 15.2754 18.7853 17.074 16.8445L16.3414 16.3152C14.6526 18.417 12.1191 19.8112 9.2561 19.9822C9.45231 19.9939 9.64999 20.0001 9.84912 20.0001Z" fill="#43A047"/>
    <path d="M3.64634 10.1509C3.64634 10.9682 3.80446 11.7486 4.09181 12.4632L1.038 14.5558C0.373763 13.2305 0 11.7343 0 10.1509C0 8.4249 0.443899 6.80266 1.2239 5.39209L4.21508 7.55334C3.85005 8.34322 3.64634 9.22352 3.64634 10.1509Z" fill="#FFC107"/>
    <path d="M3.19129 13.0803L4.09178 12.4632C3.80443 11.7486 3.64631 10.9682 3.64631 10.151C3.64631 9.22354 3.85002 8.34324 4.21505 7.55336L3.35153 6.92944C2.79079 7.85529 2.46535 8.94173 2.45742 10.108C2.45011 11.1834 2.71661 12.1961 3.19129 13.0803Z" fill="#FFB300"/>
  </g>
  <defs>
    <clipPath id="clip0_210_470">
      <rect width="20" height="20" fill="white" transform="translate(0 0.302002)"/>
    </clipPath>
  </defs>
</svg>