<svg width="66" height="66" viewBox="0 0 66 66" fill="none" xmlns="http://www.w3.org/2000/svg">
<g id="Group">
<path id="Path" d="M43.6714 50.3405H22.7827" stroke="#171717" stroke-width="2" stroke-linecap="round" stroke-linejoin="round"/>
<path id="Path_2" d="M51.6639 50.3404H57.0101C58.4835 50.3404 59.6779 49.146 59.6779 47.6726V31.3601C59.6779 30.6817 59.5484 30.0095 59.2964 29.3797L55.6823 20.3467C54.8719 18.3213 52.9101 16.9932 50.7285 16.9932H41.0034" stroke="#171717" stroke-width="2" stroke-linecap="round" stroke-linejoin="round"/>
<path id="Path_3" d="M59.6779 35.6677H50.3407C49.604 35.6677 49.0068 35.0705 49.0068 34.3338V24.9966H57.5437" stroke="#171717" stroke-width="2" stroke-linecap="round" stroke-linejoin="round"/>
<path id="Path_4" d="M50.4919 47.5216C51.6364 48.666 51.9789 50.3872 51.3596 51.8826C50.7403 53.3779 49.2812 54.3529 47.6626 54.353C46.0441 54.3531 44.5849 53.3782 43.9654 51.8829C43.346 50.3877 43.6883 48.6664 44.8327 47.5219L44.833 47.5216C45.5834 46.7712 46.6012 46.3496 47.6624 46.3496C48.7237 46.3496 49.7415 46.7712 50.4919 47.5216V47.5216" stroke="#171717" stroke-width="2" stroke-linecap="round" stroke-linejoin="round"/>
<path id="Path_5" d="M21.1462 47.5217C22.2907 48.6661 22.6332 50.3872 22.0139 51.8826C21.3946 53.3779 19.9355 54.353 18.3169 54.3531C16.6984 54.3532 15.2392 53.3783 14.6197 51.883C14.0003 50.3877 14.3426 48.6665 15.487 47.5219L15.4878 47.5211C16.2381 46.7708 17.2559 46.3493 18.3171 46.3494C19.3782 46.3495 20.3959 46.7712 21.1461 47.5217V47.5217" stroke="#171717" stroke-width="2" stroke-linecap="round" stroke-linejoin="round"/>
<path id="Path_6" d="M14.3256 50.3405H8.99004C7.51667 50.3405 6.32227 49.1461 6.32227 47.6727V14.3255C6.32227 12.8521 7.51667 11.6577 8.99004 11.6577H38.3356C39.809 11.6577 41.0034 12.8521 41.0034 14.3255V38.3355" stroke="#171717" stroke-width="2" stroke-linecap="round" stroke-linejoin="round"/>
<path id="Path_7" d="M41.0034 38.3354H6.32227" stroke="#171717" stroke-width="2" stroke-linecap="round" stroke-linejoin="round"/>
</g>
</svg>
