<svg xmlns="http://www.w3.org/2000/svg" width="162" height="159" viewBox="0 0 162 159" fill="none">
  <path fill-rule="evenodd" clip-rule="evenodd" d="M81 29.0323L80.7096 36.8255C79.8511 59.8685 61.2636 78.3486 38.0981 79.1908L29.5935 79.5L38.0981 79.8092C61.2637 80.6514 79.8511 99.1315 80.7096 122.175L81 129.968L81.2904 122.175C82.1489 99.1315 100.736 80.6514 123.902 79.8092L132.406 79.5L123.902 79.1908C100.736 78.3486 82.1489 59.8685 81.2904 36.8254L81 29.0323ZM79.9213 8.00034e-09L82.0787 0L83.4478 36.7459C84.2645 58.6649 101.945 76.2435 123.981 77.0446L162 78.4269V80.5731L123.981 81.9554C101.945 82.7565 84.2645 100.335 83.4478 122.254L82.0787 159H79.9213L78.5522 122.254C77.7355 100.335 60.0548 82.7565 38.0193 81.9554L1.20641e-08 80.5731L0 78.4269L38.0192 77.0446C60.0548 76.2435 77.7355 58.6649 78.5522 36.7459L79.9213 8.00034e-09Z" fill="#E2DBCB"/>
</svg>