<svg width="70" height="50" viewBox="0 0 70 50" fill="none" xmlns="http://www.w3.org/2000/svg">
<g id="international payment/mastercard">
<rect x="0.5" y="0.5" width="69" height="49" stroke="#F5F5F5"/>
<g id="MASTERCARD">
<g id="logo">
<g id="group" opacity="0.01">
<rect id="Rectangle" x="15" y="12" width="39.8152" height="25.9701" fill="white"/>
</g>
<rect id="Rectangle_2" x="29.6572" y="16.5247" width="10.503" height="16.9179" fill="#FF5F00"/>
<path id="Path" fill-rule="evenodd" clip-rule="evenodd" d="M30.7391 24.9851C30.7365 21.6843 32.2729 18.5656 34.9058 16.5276C30.433 13.061 24.0099 13.5659 20.1504 17.6876C16.291 21.8093 16.291 28.1639 20.1504 32.2856C24.0099 36.4072 30.433 36.9122 34.9058 33.4455C32.2721 31.4069 30.7355 28.2869 30.7391 24.9851Z" fill="#EB001B"/>
<path id="Shape" fill-rule="evenodd" clip-rule="evenodd" d="M51.5357 31.3796V32.0826H51.4623V31.3796H51.3057V31.2341H51.7023V31.3796H51.5357ZM52.3061 31.2341V32.0826H52.2228V31.4402L52.0928 31.9917H52.0028L51.8728 31.4402V32.0826H51.7861V31.2341H51.9061L52.0461 31.8402L52.1861 31.2341H52.3061Z" fill="#F79E1B"/>
<path id="Path_2" fill-rule="evenodd" clip-rule="evenodd" d="M52.5578 24.9851C52.5577 29.1043 50.1727 32.8618 46.4159 34.6618C42.659 36.4619 38.1898 35.9884 34.9062 33.4426C37.5379 31.4028 39.0745 28.2846 39.0745 24.9836C39.0745 21.6826 37.5379 18.5643 34.9062 16.5246C38.1898 13.9787 42.659 13.5053 46.4159 15.3053C50.1727 17.1054 52.5577 20.8629 52.5578 24.9821V24.9851Z" fill="#F79E1B"/>
</g>
</g>
</g>
</svg>
