<svg width="66" height="66" viewBox="0 0 66 66" fill="none" xmlns="http://www.w3.org/2000/svg">
<g id="Group">
<path id="Path" d="M33 54.3421C40.817 54.3427 48.009 50.0697 51.7465 43.2041" stroke="#323232" stroke-width="2" stroke-linecap="round" stroke-linejoin="round"/>
<path id="Path_2" d="M54.3422 32.9999C54.3422 21.213 44.787 11.6577 33 11.6577" stroke="#323232" stroke-width="2" stroke-linecap="round" stroke-linejoin="round"/>
<path id="Path_3" d="M32.9999 11.6577C25.1829 11.6571 17.9909 15.93 14.2534 22.7957" stroke="#323232" stroke-width="2" stroke-linecap="round" stroke-linejoin="round"/>
<path id="Path_4" d="M11.6577 33C11.6577 44.787 21.213 54.3422 32.9999 54.3422" stroke="#323232" stroke-width="2" stroke-linecap="round" stroke-linejoin="round"/>
<path id="Path_5" d="M14.2534 22.7956C18.9187 14.2222 28.8056 9.90619 38.2645 12.3139C47.7234 14.7216 54.3436 23.2393 54.3421 32.9998" stroke="#323232" stroke-width="2" stroke-linecap="round" stroke-linejoin="round"/>
<path id="Path_6" d="M11.6577 33C11.6562 42.7605 18.2764 51.2783 27.7353 53.686C37.1942 56.0936 47.0812 51.7776 51.7464 43.2042" stroke="#323232" stroke-width="2" stroke-linecap="round" stroke-linejoin="round"/>
<path id="Path_7" d="M22.4543 22.7956H13.0237V13.3623" stroke="#323232" stroke-width="2" stroke-linecap="round" stroke-linejoin="round"/>
<path id="Path_8" d="M43.5457 43.2041H52.9762V52.6374" stroke="#323232" stroke-width="2" stroke-linecap="round" stroke-linejoin="round"/>
</g>
</svg>
