<svg xmlns="http://www.w3.org/2000/svg" width="21" height="22" viewBox="0 0 21 22" fill="none">
  <path fill-rule="evenodd" clip-rule="evenodd" d="M7.875 13.6261L10.6324 13.2856C10.8261 13.2618 11.0064 13.174 11.1445 13.0361L17.8244 6.36058C18.5641 5.62055 18.5641 4.42112 17.8244 3.68109V3.68109C17.0844 2.94143 15.8849 2.94143 15.1449 3.68109L8.52715 10.2988C8.39312 10.4328 8.30618 10.6067 8.27942 10.7943L7.875 13.6261Z" stroke="#171717" stroke-width="1.5" stroke-linecap="round" stroke-linejoin="round"/>
  <path d="M10.0636 3.99707C5.95432 3.99707 2.62305 7.32834 2.62305 11.4377C2.62305 15.547 5.95432 18.8783 10.0636 18.8783C14.173 18.8783 17.5042 15.547 17.5042 11.4377" stroke="#171717" stroke-width="1.5" stroke-linecap="round" stroke-linejoin="round"/>
  <path d="M16.2166 7.96245L13.5371 5.28296" stroke="#171717" stroke-width="1.5" stroke-linecap="round" stroke-linejoin="round"/>
</svg>