<svg xmlns="http://www.w3.org/2000/svg" width="112" height="112" viewBox="0 0 112 112" fill="none">
  <path d="M18.666 32.6666V23.3333C18.666 20.756 20.7554 18.6666 23.3327 18.6666H88.666C91.2433 18.6666 93.3327 20.756 93.3327 23.3333V32.6666" stroke="#323232" stroke-width="4" stroke-linecap="round" stroke-linejoin="round"/>
  <path fill-rule="evenodd" clip-rule="evenodd" d="M93.3333 32.6666H18.6667C16.0893 32.6666 14 34.756 14 37.3333V88.6666C14 93.8213 18.1787 98 23.3333 98H88.6667C93.8213 98 98 93.8213 98 88.6666V37.3333C98 34.756 95.9107 32.6666 93.3333 32.6666Z" stroke="#323232" stroke-width="4" stroke-linecap="round" stroke-linejoin="round"/>
  <path d="M74.6673 51.3334C74.6673 61.6427 66.31 70 56.0007 70C45.6913 70 37.334 61.6427 37.334 51.3334" stroke="#323232" stroke-width="4" stroke-linecap="round" stroke-linejoin="round"/>
</svg>