<svg xmlns="http://www.w3.org/2000/svg" width="150" height="148" viewBox="0 0 150 148" fill="none">
  <path d="M75 0L76.2683 34.2209C77.0442 55.1571 93.8432 71.9475 114.78 72.7127L150 74L114.78 75.2873C93.8432 76.0525 77.0442 92.8429 76.2683 113.779L75 148L73.7317 113.779C72.9558 92.8429 56.1568 76.0525 35.2202 75.2873L0 74L35.2202 72.7127C56.1568 71.9475 72.9558 55.1571 73.7317 34.2209L75 0Z" fill="#E2DBCB"/>
  <path d="M112 9.91406L95.9879 40.1843C86.1918 58.7036 92.345 81.644 110.094 92.775L139.952 111.5L108.807 95.0047C90.2925 85.1991 67.3489 91.3405 56.2088 109.084L38 138.086L54.0121 107.816C63.8082 89.2963 57.655 66.3559 39.906 55.2249L10.0481 36.4999L41.1933 52.9952C59.7075 62.8008 82.6511 56.6594 93.7912 38.916L112 9.91406Z" fill="#E2DBCB"/>
  <path d="M139.086 37L110.084 55.2088C92.3406 66.3489 86.1991 89.2924 96.0047 107.807L112.5 138.952L93.7751 109.094C82.6441 91.345 59.7037 85.1918 41.1844 94.9879L10.9141 111L39.9161 92.7912C57.6594 81.6511 63.8008 58.7075 53.9953 40.1933L37.5 9.04809L56.2249 38.906C67.3559 56.655 90.2963 62.8082 108.816 53.0121L139.086 37Z" fill="#E2DBCB"/>
</svg>