<svg width="70" height="50" viewBox="0 0 70 50" fill="none" xmlns="http://www.w3.org/2000/svg">
<g id="international payment/visa">
<rect x="0.5" y="0.5" width="69" height="49" stroke="#F5F5F5"/>
<g id="VISA">
<g id="logo">
<path id="polygon9" fill-rule="evenodd" clip-rule="evenodd" d="M32.0221 31.744H28.4824L30.6964 18.4119H34.2359L32.0221 31.744Z" fill="#0742A6"/>
<path id="path11" fill-rule="evenodd" clip-rule="evenodd" d="M44.8535 18.7378C44.1553 18.468 43.0479 18.1702 41.6786 18.1702C38.1831 18.1702 35.7215 19.9855 35.7064 22.5809C35.6774 24.4958 37.4688 25.5593 38.8087 26.1978C40.1781 26.8503 40.6437 27.2761 40.6437 27.8576C40.6297 28.7508 39.5371 29.1625 38.5179 29.1625C37.1047 29.1625 36.3475 28.9502 35.1968 28.4533L34.7307 28.2403L34.2354 31.2331C35.0655 31.6014 36.5951 31.9283 38.1831 31.9426C41.8972 31.9426 44.3152 30.1554 44.3438 27.3896C44.3579 25.8719 43.412 24.709 41.3726 23.7587C40.1346 23.1487 39.3764 22.7374 39.3764 22.1132C39.3909 21.5458 40.0177 20.9646 41.4152 20.9646C42.5659 20.9362 43.4114 21.2055 44.0519 21.4751L44.3721 21.6167L44.8535 18.7378Z" fill="#0742A6"/>
<path id="path13" fill-rule="evenodd" clip-rule="evenodd" d="M51.1899 18.4119H53.9278L56.7835 31.7438H53.5061C53.5061 31.7438 53.1853 30.212 53.0837 29.7439H48.539C48.4076 30.0983 47.7961 31.7438 47.7961 31.7438H44.082L49.3398 19.518C49.7041 18.6528 50.3456 18.4119 51.1899 18.4119ZM50.9717 23.2907C50.9717 23.2907 49.85 26.255 49.5585 27.0209H52.5007C52.3551 26.3543 51.6848 23.163 51.6848 23.163L51.4374 22.0143C51.3333 22.3101 51.1826 22.7168 51.081 22.9911C51.0121 23.1771 50.9658 23.3022 50.9717 23.2907Z" fill="#0742A6"/>
<path id="path15" fill-rule="evenodd" clip-rule="evenodd" d="M25.5253 18.4119L22.0588 27.5031L21.68 25.6593C21.0391 23.5318 19.0291 21.2203 16.7861 20.0709L19.9613 31.7298H23.7045L29.2683 18.4119H25.5253V18.4119Z" fill="#0742A6"/>
<path id="path17" fill-rule="evenodd" clip-rule="evenodd" d="M18.8402 18.4119H13.1452L13.0869 18.6812C17.5294 19.7876 20.4716 22.4544 21.6804 25.6599L20.4423 19.5326C20.2385 18.6811 19.6121 18.44 18.8402 18.4119Z" fill="#0742A6"/>
</g>
</g>
</g>
</svg>
